ply
format ascii 1.0           
comment Exported triangulation
comment 
element vertex 875
property float x
property float y
property float z
element face 64
property list uchar int vertex_index
end_header
-0.0312216 0.126304 0.00514924
-0.0446774 0.131204 0.00570479
-0.0683011 0.144828 0.0413688
-0.00600095 0.130398 0.0178986
-0.0173568 0.127613 0.00526885
0.0330513 0.107034 0.0319543
0.0400873 0.10521 0.0173419
-0.0301802 0.106322 0.0399745
0.0304193 0.118572 0.0188068
-0.0640822 0.159391 -0.0169096
0.0447046 0.0927877 0.00507585
-0.0316754 0.170395 -0.00635023
-0.0848523 0.134078 0.0470177
-0.0688547 0.122052 0.0517569
0.00595475 0.131024 0.0178252
0.0404629 0.105142 0.00640978
0.0387342 0.102161 -0.00463112
-0.0914513 0.134136 0.0171026
-0.0818721 0.107166 0.031016
-0.067218 0.156155 0.0178863
-0.0795687 0.152875 0.0299311
0.00596007 0.122504 0.0346272
-0.0516317 0.145001 0.0184804
-0.0779781 0.13255 0.0513494
-0.00590708 0.127934 0.0274623
-0.0479133 0.129301 0.0269646
-0.082427 0.0928134 -0.00556046
0.01744 0.127694 0.0185348
-0.0906868 0.120305 0.0066804
-0.0294038 0.17903 -0.00787959
-0.0797891 0.14376 0.0426994
-0.018288 0.108329 0.0415098
-0.0202326 0.181846 -0.0183274
-0.0377039 0.167987 -0.0130391
0.00582164 0.12806 0.0279016
-0.0435389 0.130014 0.0175333
0.0188699 0.119862 0.032409
-0.0440101 0.167035 0.00231898
-0.089811 0.132401 0.00705743
-0.057352 0.144989 0.0315196
0.0442622 0.0934526 0.0176417
0.0412343 0.0921731 0.0285603
-0.0563953 0.154565 0.016878
-0.0206135 0.159773 -0.00717522
-0.0729893 0.0656116 0.0181693
-0.0673967 0.155256 0.00581389
-0.0904864 0.118611 0.0412148
0.0273142 0.117965 0.0286191
0.041907 0.0916386 -0.00556945
-0.0702109 0.165303 -0.0194661
-0.0061847 0.122729 0.034787
0.0300138 0.0932786 0.0421476
-0.0175129 0.162126 -0.0145489
-0.0763977 0.171291 -0.0411021
-0.0854227 0.105386 0.00339486
0.0370431 0.110443 0.0207229
-0.00659732 0.0427285 0.0469391
0.00639794 0.0437006 0.046826
-0.0559247 0.157606 0.00656455
-0.0911449 0.118816 0.0298442
-0.0595109 0.128352 0.0399626
-0.0176335 0.127605 0.0179366
-0.066633 0.153831 0.0308703
-0.0436418 0.169438 -0.00550226
-0.0572759 0.043243 0.042862
-0.0763773 0.157221 -0.0168889
-0.0434461 0.15605 0.00615795
-0.0427118 0.0421645 0.0427004
-0.0254201 0.0886622 0.0503827
-0.014179 0.12627 0.0266417
-0.0882582 0.0898687 0.00696625
-0.0688695 0.157773 -0.00687593
-0.0679676 0.142877 -0.00757643
0.0188538 0.106293 0.0416902
-0.036487 0.171225 0.000545037
-0.0664352 0.117198 -0.00987161
-0.0682606 0.170398 -0.0436995
-0.090925 0.14605 0.0190382
0.00678622 0.115841 0.0388077
0.0310139 0.0930696 -0.017798
0.0056976 0.10589 0.0435511
-0.0706519 0.13063 0.0502497
0.0059746 0.130858 0.00579479
0.0184217 0.0423182 0.042477
0.0147876 0.0909747 0.0509658
-0.00598232 0.115409 0.0402027
-0.0811312 0.117972 -0.00359453
-0.0787032 0.144274 -0.00389052
0.00581988 0.106226 -0.0208968
-0.0192761 0.119853 0.0328061
-0.00593116 0.130215 0.005954
-0.0893322 0.142745 0.0290326
-0.00762538 0.123273 -0.00981555
-0.0692263 0.178922 -0.0542743
-0.0298757 0.124252 0.0209674
-0.0848266 0.148987 0.0327697
-0.0888516 0.0909723 0.0179034
-0.0305879 0.122384 -0.00635771
-0.0307198 0.117989 0.0306166
-0.0780612 0.120653 0.0513999
0.0332714 0.108498 -0.00743195
-0.0677112 0.0928918 -0.0168814
-0.075666 0.0911817 -0.0136967
-0.082422 0.0951121 0.0310878
-0.0856984 0.136903 0.00192122
-0.0292804 0.0417747 0.051397
-0.017732 0.0423864 0.051684
-0.0656987 0.171007 -0.056644
-0.0298523 0.170905 -0.0165609
-0.0562502 0.135013 0.0330455
-0.0666127 0.133021 0.0447044
-0.0425379 0.155441 -0.00749353
-0.0545308 0.0714603 0.0397042
-0.0413159 0.0906923 -0.0225881
-0.0172876 0.0921774 0.0536212
-0.00598119 0.0940308 0.0542643
0.0423724 0.0672563 0.0295801
0.0285741 0.116909 -0.00391772
-0.0331811 0.0450744 0.0451146
-0.0539402 0.118566 0.0353731
0.0422724 0.0795546 -0.00579461
0.0297273 0.0425502 0.0304975
-0.0315639 0.0959331 -0.0236801
0.0381804 0.105121 0.0266947
-0.0284988 0.090492 -0.0290854
-0.0173189 0.0437942 0.0432695
0.00376754 0.0477551 0.0502037
0.0432673 0.0458291 0.0278251
-0.0233322 0.181239 -0.0112893
-0.0056258 0.0565038 0.0538818
0.00529431 0.0556798 0.0532881
-0.0883219 0.105757 0.0172983
-0.0566374 0.0470184 0.0305809
-0.0296243 0.0543188 0.0398951
-0.00597407 0.105897 0.0440669
-0.0214122 0.0546976 0.044641
-0.0161488 0.0574363 0.050904
-0.0568305 0.146392 -0.0026426
-0.0931466 0.119067 0.0179948
-0.061862 0.158417 -0.0293026
-0.0855858 0.10684 0.021729
0.0336642 0.0540543 0.0350841
0.042771 0.0560351 0.031559
-0.0434589 0.117191 0.0317044
-0.0680962 0.156721 -0.0426174
0.0272384 0.103156 0.0397058
-0.0293932 0.178536 -0.0145563
-0.0762697 0.0912245 0.0383419
-0.0191285 0.0985952 0.0456676
-0.053091 0.0567402 0.0293963
-0.0431978 0.0555777 0.0390838
-0.0833055 0.115643 0.046828
0.0144345 0.127081 0.026297
-0.0388913 0.123761 0.0249778
-0.0594359 0.119905 0.0399756
-0.0702332 0.154262 -0.0312401
-0.0574473 0.152576 0.0284508
-0.0480038 0.056366 0.0362663
-0.0107262 0.179662 -0.0277472
-0.0882293 0.106066 0.00846756
-0.078994 0.153984 0.00651862
-0.0295675 0.126072 0.0146338
-0.0817356 0.15439 0.0177332
-0.0795469 0.104194 -0.00620274
-0.0248608 0.122913 0.0245429
-0.0664416 0.159957 -0.0533713
-0.0784878 0.0705283 0.0174461
-0.00967101 0.173225 -0.0264945
-0.0566284 0.0547031 0.00744563
-0.0184015 0.122219 -0.00775134
-0.0695952 0.146412 -0.018032
-0.0412517 0.123196 -0.00958087
-0.0684972 0.148194 -0.028726
-0.0540036 0.055543 0.0177674
-0.0169203 0.0682168 0.0531499
-0.00607221 0.0677102 0.0564501
0.00708728 0.0673218 0.0553369
-0.0143174 0.116971 0.037836
0.0538923 0.0557547 0.0266244
0.00517855 0.0931738 0.0535873
-0.0431038 0.0674388 0.0407737
-0.0293069 0.0680733 0.041016
-0.0379555 0.161954 -0.0128021
-0.0561165 0.0654329 0.0341979
-0.0761707 0.155559 -0.0059272
-0.0552181 0.122506 -0.00946488
0.0177004 0.105983 -0.0186138
0.0534583 0.0656375 0.0264336
-0.0869152 0.0944156 0.00293118
-0.0764257 0.161707 -0.0297517
-0.0440959 0.127453 -0.00327875
-0.0312919 0.0798298 0.0434944
-0.0549448 0.106348 -0.0185625
-0.0723735 0.110057 -0.00943257
-0.0553659 0.0919829 -0.0211783
-0.0488091 0.0660127 0.0373959
-0.0473086 0.145156 0.00688469
-0.0803913 0.129634 -0.00469755
-0.041802 0.105934 -0.0198692
-0.00632139 0.0931652 -0.0328935
-0.00597054 0.106138 -0.0222282
-0.0294827 0.158293 -0.00619266
-0.0177953 0.106289 -0.0217771
-0.0885261 0.137839 0.0393964
-0.0674935 0.128392 -0.00863471
0.0463693 0.0715128 0.0216754
-0.0409565 0.117168 -0.0145809
-0.0106656 0.167541 -0.0199013
-0.0532547 0.157456 -0.00281896
0.00530988 0.0933129 -0.0301852
-0.0773436 0.0727226 0.0266546
-0.0625087 0.149934 -0.0150319
-0.0688014 0.0685726 0.0306649
-0.0545252 0.0808478 -0.0201707
-0.0436768 0.078916 0.0428855
-0.0185748 0.0789703 0.0557353
-0.00599993 0.0794548 0.0578008
0.00706485 0.0811917 0.0558187
-0.0850269 0.146034 0.00585954
0.0370111 0.110397 0.00265294
-0.0683084 0.0803316 0.0407109
-0.055894 0.0792594 0.0435335
0.0381456 0.0881056 -0.0138675
-0.0642837 0.0396418 0.039624
-0.0698696 0.168536 -0.0313319
-0.061796 0.155741 -0.0207923
-0.0622848 0.16236 -0.0396288
-0.0686864 0.0923704 0.0421978
-0.049353 0.139298 0.0147955
-0.0784177 0.110126 0.0417886
0.0179416 0.0792747 0.0518862
0.00532732 0.123661 -0.00997105
-0.0556774 0.0935206 0.044207
-0.0431924 0.0921154 0.0432689
-0.0298626 0.0940124 0.0444805
0.0205955 0.087113 0.0492325
0.01721 0.127663 0.00512593
-0.0290125 0.106719 -0.0207479
0.0185443 0.0948112 0.0477587
-0.00588676 0.116622 -0.0160049
-0.0528191 0.162649 0.00296711
0.0358078 0.0958594 -0.0120328
-0.0912064 0.131415 0.0295307
-0.067874 0.106952 0.0403725
-0.0441636 0.104918 0.0401706
0.00749586 0.09835 0.0488255
-0.0554961 0.103898 0.0411405
-0.0669044 0.115717 0.0473479
-0.0501524 0.140326 0.00258818
-0.0554508 0.13242 -0.00485445
-0.014752 0.181897 -0.0262781
-0.029558 0.161783 -0.0143368
-0.0561854 0.111277 0.0373713
-0.040984 0.110496 0.0370883
-0.0320055 0.110468 0.0370438
0.0250033 0.110611 0.0368459
-0.046987 0.147434 -0.00222536
-0.0183407 0.0352362 0.0507938
-0.0178406 0.170484 -0.0181143
-0.0569472 0.0349416 0.0423717
0.00583339 0.0351076 0.0420914
-0.0428024 0.0351574 0.0416872
-0.066462 0.104777 -0.0148582
0.0257452 0.0459137 0.0381185
0.0379451 0.0817167 -0.0141547
-0.0844262 0.0797714 0.0186332
0.0532504 0.04759 0.0181903
0.0186424 0.0536035 0.046215
0.00732515 0.118243 -0.0153012
-0.0314704 0.157066 0.000976216
0.0286229 0.056876 0.0407635
0.0581591 0.0550016 0.0180254
0.016864 0.089935 -0.0269104
0.0145778 0.0585769 0.0501691
0.0367248 0.0918184 0.0366248
-0.0198801 0.166404 -0.0112699
0.0150294 0.0677357 0.0520671
0.0210524 0.0681161 0.0484346
0.0298776 0.0679936 0.0419172
0.0368358 0.0678495 0.036641
0.0574748 0.0682218 0.0171425
0.0316842 0.0785087 -0.019208
-0.0760271 0.175704 -0.0506937
-0.0655396 0.0607885 0.0175707
-0.0806026 0.081447 0.0306516
0.0189749 0.121506 -0.00694565
0.030684 0.0795461 0.0431507
0.0371888 0.0792484 0.0367937
0.0419366 0.0795911 0.0295911
0.046032 0.0793694 0.0177694
-0.0787921 0.0707773 0.00685585
-0.0293987 0.115917 -0.0147065
-0.0869924 0.113518 0.00410409
-0.0142186 0.174013 -0.0259807
0.0174795 0.0352131 -0.00592856
0.0162141 0.0358475 -0.0162131
0.0193248 0.0358322 0.0313206
0.0435544 0.0411101 0.00579916
0.0226191 0.0406052 -0.00793544
0.0191348 0.042782 -0.0192095
0.0414633 0.0456301 -0.00354513
0.0436925 0.0411968 0.01772
0.0512872 0.0463959 0.00580531
0.0285777 0.105181 -0.0142381
0.0306748 0.0445124 -0.00617993
-0.0184118 0.0948059 -0.0307434
-0.0315484 0.0343023 -0.0284081
0.0260381 0.0475902 -0.0165794
0.0554197 0.0686378 0.00589653
0.0520374 0.055073 -0.0024816
0.0567375 0.0542224 0.00512483
0.0428049 0.0553286 -0.00604704
-0.0620037 0.167422 -0.0527165
0.0341128 0.0541776 -0.00948346
0.029518 0.0560564 -0.0175875
-0.0177887 0.115911 -0.0157838
-0.0417838 0.0357602 -0.0264107
-0.00518939 0.043046 -0.0273333
-0.0664059 0.0343649 -0.00416668
0.0475414 0.0712174 0.00542617
0.0249138 0.0825163 -0.0245877
-0.0299024 0.0426031 -0.0283179
0.0218121 0.0515865 -0.0236492
-0.0271537 0.0351608 0.0509267
0.0161181 0.11563 -0.0145451
0.031738 0.0679983 -0.0183532
0.0418226 0.0675201 -0.00551555
0.0514871 0.0637279 -0.00174794
-0.0893303 0.128309 0.0428023
0.0459385 0.0796307 0.00579632
-0.0705433 0.149897 -0.0387319
-0.0429617 0.0430242 -0.0176288
-0.0719677 0.177848 -0.0474604
-0.0760529 0.177651 -0.0471457
0.0304173 0.118495 0.00573814
-0.0771451 0.167706 -0.0298798
0.0202668 0.092861 -0.0237363
-0.0254815 0.0798697 0.0510546
-0.0650541 0.0353259 0.0162237
-0.0647676 0.0350792 0.0294481
-0.0644267 0.0414591 0.0304476
-0.06432 0.0352261 0.0387914
-0.0676 0.0340299 0.00590491
-0.0679534 0.0418588 0.00668394
-0.0573497 0.0431548 0.0200229
-0.0634632 0.0414321 0.0142052
-0.059413 0.0471382 0.00628538
-0.0233834 0.0656416 0.0450976
-0.063538 0.071665 0.0379463
-0.0193036 0.0810128 -0.0384318
-0.0427206 0.0343557 -0.0191302
-0.00690237 0.03464 -0.0202171
-0.0656787 0.0408332 -0.00401793
-0.0383907 0.0419218 -0.0264039
-0.0556585 0.0432866 -0.00758834
-0.0416785 0.0420276 -0.00999679
-0.0322294 0.0446593 -0.0167499
-0.0307385 0.0563307 -0.018517
-0.0429026 0.0561897 -0.0113043
-0.0550285 0.0566557 -0.00531375
-0.0261858 0.0568836 -0.0282694
-0.0552189 0.117461 -0.0133744
-0.0190658 0.0546695 -0.0318646
-0.0687629 0.0686694 -0.00654941
-0.0730504 0.06542 0.00552859
-0.0207234 0.0672793 -0.036553
-0.0290792 0.067426 -0.0290521
-0.0328056 0.0664637 -0.0195215
-0.0177608 0.0343319 -0.0259142
-0.0773687 0.0732571 -0.00409771
0.0151616 0.126104 -0.00266395
-0.0845255 0.0800572 0.00530702
-0.0793517 0.0798559 -0.00640565
-0.0309728 0.0794701 -0.0312475
-0.0355144 0.081801 -0.0226887
-0.068141 0.0801227 -0.0164278
-0.0512932 0.034227 -0.0129013
0.0161924 0.080479 -0.0292174
-0.0144478 0.0879274 -0.0380297
-0.0173157 0.0432674 -0.0282906
-0.0193328 0.0979251 -0.024792
-0.0555479 0.0336816 -0.00619013
0.00702627 0.0978418 -0.0246055
-0.0148892 0.126068 -0.00252126
0.0175205 0.0552114 -0.0272756
-0.00953661 0.0794104 -0.0379859
0.00524266 0.0391336 -0.021947
0.0175653 0.0679339 -0.0289388
-0.0057907 0.128077 -0.00285105
0.00626556 0.128047 -0.0031705
0.00559979 0.0346604 -0.0179318
0.029824 0.0359142 0.00488977
0.00625193 0.0459623 -0.0263782
0.0143253 0.0473484 -0.0251513
0.00604086 0.0555073 -0.0304314
-0.00613413 0.0546372 -0.032635
-0.0346694 0.057124 -0.0114953
-0.00684543 0.0679742 -0.0359406
0.0056558 0.0676237 -0.0329199
-0.0569732 0.0651628 -0.00958219
-0.0422796 0.0699944 -0.0161463
-0.0175719 0.0705473 -0.0382261
-0.055586 0.0722983 -0.0161218
-0.0637884 0.0712697 -0.0138535
0.00568561 0.0790547 -0.0339189
-0.00338429 0.0804511 -0.0367226
-0.0248988 0.0815004 -0.0371078
-0.0412513 0.0791378 -0.0197746
-0.0735819 0.0777026 -0.0122023
-0.018062 0.0352627 -0.0195401
-0.031577 0.0358487 -0.0179669
-0.00602034 0.0381237 -0.0145184
-0.0177811 0.0382546 -0.0154503
0.00753447 0.0355596 -0.00650063
0.00430437 0.0384017 -0.0071754
-0.00593935 0.038948 -0.00592129
-0.0176142 0.0386055 -0.00584508
-0.0430308 0.0341391 -0.00565972
0.0189222 0.0351076 0.00499769
-0.0299129 0.0383912 -0.00582677
0.00512066 0.0348398 0.00558498
0.00103528 0.0375917 0.000952222
-0.00584714 0.0383419 0.00590803
-0.0424621 0.0343144 0.00590597
-0.017873 0.0383166 0.00599471
0.028662 0.0358411 0.0187496
-0.055026 0.0336204 0.00583816
-0.0284733 0.0381489 0.00441853
-0.000947006 0.0357374 0.0103469
0.0193224 0.0351814 0.0196616
-0.0342325 0.033759 0.00717517
0.00536022 0.0345956 0.0179871
-0.000385714 0.0351459 0.0134171
0.0334119 0.0376179 0.0210082
-0.00589791 0.0381782 0.0177062
-0.0352445 0.0350571 0.0178257
-0.0178078 0.0381962 0.0178114
-0.0261898 0.0377592 0.0177044
-0.0563247 0.0336762 0.0175265
0.00114114 0.037661 0.0223414
0.0100253 0.0355029 0.029656
0.00550127 0.0385556 0.0296609
-0.00596581 0.0388946 0.0299252
-0.0330745 0.0355217 0.0292236
-0.0277717 0.0382563 0.0322865
-0.0179091 0.0385902 0.0296167
-0.0419404 0.0343698 0.0299668
0.015243 0.0356116 0.0412692
-0.0554301 0.0342555 0.0297952
-0.0660515 0.0611144 0.00585548
-0.00654912 0.0350372 0.0453959
-0.0307826 0.0347596 0.0432959
-0.0180834 0.0348142 0.0458772
-0.06505409999999993 0.03532590000000001 0.016223700000000132
-0.07023319999999998 0.154262 -0.031240099999999986
-0.017953760990145198 0.03831007329045188 0.006069715596102023
-0.043101898710491734 0.06745553411975158 0.04077625742048638
0.01695494841867665 0.09002614361392501 -0.026842328574357647
0.0175070975516227 0.03515190679282582 -0.005794824021087163
-0.05542609461130844 0.03372184994699559 -0.006288749097456235
-0.00012874540794793164 0.035075324523811985 0.013173009978879659
0.02847737695287212 0.03576663696200223 0.018767291469887645
0.014036225933926911 0.04720032724002463 -0.025170944284931537
-0.005819087718378527 0.03815978676202486 0.017535364053528128
-0.014561406644019993 0.038675633579010646 -0.00495145121852262
-0.007276955880627217 0.03470311169441585 -0.020341857889701262
-0.04422693173155384 0.10471659978649099 0.04026593792401879
-0.024574653857100247 0.0379639696219622 0.016266773445848846
-0.030419455040322996 0.1068302135184733 0.03969264574365604
0.01651579043347359 0.06860111991802326 0.051532679297591276
-0.02942387494800272 0.12419871069266751 0.02089758975607152
-0.0416399823589901 0.03509984817983498 0.04172938556537394
-0.033469060293702134 0.035576078532191094 0.025107682193589918
-0.007596266210663115 0.03885296251947319 -0.005635164257099224
0.01665513584552774 0.0914238029447243 0.050047586838338314
-0.006090281559457232 0.08024296809753068 -0.03745922863884289
0.03394543759382977 0.05483350683034971 0.0352067548805779
-0.05167951959168969 0.14481726525193103 0.018647935706549528
0.017524738442443396 0.035157178357746746 -0.005603183438443629
0.016979936413956287 0.0559530614671904 0.047979143832381776
0.02571052173847233 0.10884354926572128 0.03772856672374319
-0.0854644291154734 0.10556163998230673 0.003589186658285241
-0.027358540752327017 0.03834743279365909 0.031646398502130496
-0.056994470686225415 0.03483124023671678 0.04233306878128926
0.0187834481111844 0.04243356152373484 0.04242121375146786
-0.06310344376730415 0.07131343316248029 -0.014236913282122178
-0.012586765882778789 0.11655993382269575 -0.015847184506077402
-0.017322717952794185 0.04416131955914439 -0.028506785447590208
0.003754191622647926 0.04654898884588624 0.04928790803316462
-0.07143527779184963 0.06426727002745532 0.005578984686116909
0.0035809502687939344 0.03834343294746766 -0.005636197763737971
0.018071178926884084 0.08154406796416411 0.05180355645590166
-0.028734177423880274 0.06862367108509457 0.04127259227900319
-0.057542554845483894 0.04288240573715702 0.020274601785513414
-0.04415797420609709 0.10529590956231448 0.040060401231433986
-0.08826112679241674 0.09078248333589821 0.006297711625767869
0.030094517891852468 0.05948060936734877 0.040379614617982854
-0.07016977108603979 0.06334035432285645 0.01720500099323444
-0.08932062124390838 0.13387247778953276 0.006166946415765446
0.03796099606149645 0.10888416921227399 0.020827410895003104
-0.02963553368288579 0.1580468455769672 -0.005949768392001088
0.01709367878842979 0.05476851849945399 -0.027410368963216778
0.006281277284289165 0.12112930185754446 0.035748898254169166
0.0016557924684635634 0.03446096637606869 0.013245759738639524
0.031704781930684864 0.09356343578449933 -0.017175448798373696
-0.030864031618085427 0.05662973162693206 -0.018148382087484555
0.037053067229829484 0.06996131178684503 0.03669369834623068
-0.05429307100788401 0.10748385727457042 -0.018160353364111252
-0.003833394091075532 0.06732720967164292 -0.035365320781971264
-0.016310053637725988 0.12756235862269494 0.003369442026089384
0.0388797796537958 0.1080293362423442 0.0036059031751444707
-0.01997467595935298 0.06950059034533373 -0.03782567538636384
0.006887848644965083 0.11952799901634759 -0.014483366404524538
-0.030968120958319766 0.07918877466360902 -0.031478430677852914
-0.01572308875156752 0.05888172236781099 0.05136576139294639
-0.06830975594970998 0.11644806917864577 -0.009588240665218874
0.0203136928363774 0.08168750539200464 -0.027055101304208046
-0.04417655563412672 0.05546708306162159 0.0387241567716627
-0.029160856796193797 0.1256295688167984 0.018205556352821978
-0.01781106547043646 0.04241427592480701 0.05142642433800098
-0.01074206060852777 0.11659586333563775 0.03936413601378368
-0.0915565257611921 0.13557367590616648 0.018802952006406342
-0.011234301766269892 0.12763702218679493 0.02627216179750986
-0.004360603960027087 0.06011649009121672 0.05528141059555888
-0.027754373767257465 0.03809709471282681 0.030635453930289783
0.006330094483393891 0.06034258081520146 0.054589020987954685
0.029314033527807898 0.035998630883034614 0.01991869383047624
-0.05657970372477203 0.12170272394843698 -0.010238300797888258
-0.0058643378703753715 0.12673169460607447 -0.005733925520559366
0.01463340689953197 0.03551395802751551 0.040845974260747195
0.039386661684813196 0.08197208049015924 -0.012105575056732156
-0.003300628855636575 0.07998243950483551 -0.036887338445682705
-0.05736085535368403 0.12285879713495461 0.0387831045707755
0.03836749234676851 0.0906119723317476 0.03488708955868902
0.007733214684571277 0.0352928449018274 -0.002788427175865225
-0.0373531223666693 0.16191446994481454 -0.0131933176095004
0.011540255546350377 0.12755437376940584 0.02762239031167545
-0.0882445494093174 0.1345078916334133 0.04351426919882505
0.018279420816042842 0.12324058409130462 -0.005629960944201725
-0.03660124772655353 0.11554181448020785 -0.01529309716603813
0.0027991053469742936 0.03887772559702258 -0.006075857816890104
-0.0785160038221273 0.0714801752566146 0.022583801415904284
-0.04037058698092499 0.12305695018421439 0.02669869929557868
-0.01350292198182108 0.11599822460375203 -0.0160927877918305
-0.06742338480505719 0.03424458241473063 0.00650528204520679
-0.012536210361957978 0.18088302028844594 -0.027051632962415906
-0.00046334893212077643 0.10698499561394552 0.043879532514687423
0.04892939789625386 0.043942761899774016 0.005878584900592193
0.024024953835976057 0.10909022095743302 0.03869236738971511
-0.017877992079511008 0.17071522936028638 -0.017971501402967646
-0.02832425914192626 0.10334499281467671 -0.022560503008388844
-0.07755316776920526 0.1538345688449444 0.0029716294092888757
0.015186971689743523 0.06290495477100952 0.05122429351375636
-0.059763638835950296 0.07188176354416957 0.03883991806522913
0.02088861272116509 0.04467883365409711 -0.019437087053312426
0.01925531012618916 0.050515472038464716 -0.025180127178514276
0.0023630167769946994 0.13147088183331046 0.01801445659323098
-0.0015505922492440685 0.09456172966861662 0.054231788817447786
-0.039906615708657486 0.16976231465030175 0.0008406947385123315
0.032435798768670955 0.045890948769565926 -0.006144902776951061
0.0013440853895034994 0.13134662310567016 0.006645500062779734
0.038154683103225104 0.1083635283313604 0.022261620189362452
-0.05632801636982004 0.05509245569666658 0.007411707407889405
-0.029049295441920392 0.09579900804327722 0.04434124843498778
-0.06074039983915369 0.09358463557362921 -0.019917719941031423
-0.01824719437300891 0.035377656978868216 0.04911917715878856
-0.03164291018469712 0.0797409352291609 0.04330465276083521
-0.044489299460897684 0.12677591420177234 -0.005235672850973975
-0.08001372396576278 0.11044721022969023 -0.004696557720226049
-0.07201843352206808 0.09084938390616133 0.04106076081925282
-0.02023753169263992 0.0792661905458106 0.055017457777095186
-0.0781877772896667 0.09160635437271333 -0.012045789005227792
-0.009677909120641561 0.11925721346575911 0.03785216041764888
-0.0552619312041353 0.033743014012325885 -0.007376595933707976
-0.031701124970542845 0.0354197259932209 0.04267334586671184
0.04665836784312974 0.07699948359906854 0.01800715520647034
-0.07468268140673649 0.1781624270964623 -0.04739183288548687
0.03548198120050089 0.07422014950918165 0.038986086692718865
-0.06129532270666908 0.15508956326940862 -0.019967656095864875
0.009500583063925944 0.03655390730676514 0.029716819162105612
-0.07557893679085834 0.0671029153761714 0.005295185248192098
-0.028458677483911687 0.17896363121978684 -0.007999095785682267
0.006870520831940966 0.09207681869294473 -0.030658524913960043
-0.08782479145932656 0.13450828429711512 0.04433556505425046
0.017323538395343254 0.05655731707470845 -0.02791790749944947
-0.012717565091186397 0.08928301632297238 -0.03622601518175309
-0.09086799080578942 0.14576835318830034 0.018758046563546824
0.032371328932456984 0.10773616839726259 -0.009353989645498781
-0.02639744000429278 0.10528642132119358 0.04104949738593083
0.050038683060107024 0.0445501855292484 0.018174915255893143
-0.004062221726546977 0.046647758475736836 -0.029446765441626794
-0.007183741635187018 0.03781924289217058 0.014014270875918425
-0.07888532484857438 0.07708649537912926 -0.00596789612000292
-0.06475133766199022 0.036181272034308126 0.039041894676745396
0.04278784413084551 0.09471570250130107 0.023609703913212595
0.03002793982775772 0.11826416340949046 0.001484155710259558
-0.06418781127159995 0.06617672706217528 -0.007688073374753517
-0.08148818573010252 0.11719423301947321 0.048991498724389064
0.038684358918192066 0.08415199569980741 -0.013707260096363381
-0.05588949975004332 0.15829007573219422 0.005684885305369259
-0.022821225580281337 0.09134138020087865 0.051856614218086565
0.01698263603057482 0.10970645570662475 -0.01713664664639402
-0.07921953085385643 0.14354802228293878 -0.004265428333816681
-0.05197931071833986 0.1319764774384036 0.028588826029249094
0.0347940447923234 0.055981375346178336 0.03546302249826
0.012937092217399589 0.08139628528363492 0.05454471630539497
-0.07523935204863774 0.13152706318221247 0.052031166162404247
-0.05988379440044119 0.10738205590284453 -0.017281210126752843
-0.052785107642071324 0.09263939943792995 0.04385759790100983
0.04370109836252123 0.09277746290029157 -0.0021274993168650344
-0.0822975032530132 0.15110215533815985 0.03228824441722663
-0.016400461940247708 0.11508759968392118 -0.0164158107664071
-0.024495970703430518 0.12096220704735774 -0.007574158802541769
0.0004630697739195355 0.12807768056752405 -0.00475609793265489
-0.057950281177271724 0.1512456742913901 0.02882872371133912
0.032935113670292664 0.06206168001299619 -0.016363841134247614
-0.06493817140580772 0.07906484365197698 0.0419860154657121
-0.06641734578220007 0.11847272538074331 -0.009858021822491056
-0.08797307395823767 0.08702586239509412 0.018015400994083473
-0.012234312799941159 0.17379797991343085 -0.02639058730257774
-0.08805685050653017 0.08719445966586173 0.006352045638597176
-0.09252563859099319 0.1177876317761026 0.022851318413016446
-0.06533649050502 0.07950937831530722 -0.018030006165622756
-0.028560388444908835 0.03430272210177711 -0.02803821213049156
0.005095943030587425 0.03515526313557836 -0.018235096842963747
-0.02671879363140183 0.05688590722201736 0.04009150022305323
-0.04436602528740566 0.07538993869901056 -0.01801747542861931
0.023222081555538687 0.11897700752122439 0.031029605047909945
-0.011589158603735454 0.03815412942131769 -0.014947388776765453
0.05485863962357825 0.054228295455042985 0.00020778702453574637
0.038833449079380626 0.1069411045385396 -0.00028876102543548055
-0.05305925568164063 0.05728950191677569 0.029917621180494212
0.018717062816325198 0.12825354770503977 0.012205728642097393
-0.06713525185158686 0.03414183633314782 -0.003335284310018706
-0.06990937644948297 0.15371639426913639 -0.031016879087404046
-0.047826179270968876 0.1416560058762933 0.005020881337631817
0.02391590631275979 0.0935391941387855 0.04630618560263251
-0.08812648272651262 0.14141644613231288 0.006332025730086935
-0.06646962894737492 0.1560725750017988 0.007159413330929718
-0.024877501641377996 0.03845716846282803 0.02938459096239832
-0.041157932446462334 0.03862358848885471 -0.02627235501800228
0.01564548535228235 0.03614134515917346 0.04101600181333226
-0.027197772281769027 0.11855849550148363 0.03029972683990699
-0.031767025794597295 0.17029835185853182 -0.016015781731490084
0.005129845030701199 0.12000699683617852 -0.013861879011678591
-0.07700973779797882 0.17144145539829686 -0.04030635398886054
0.053482928018716284 0.066405126662484 0.0010840088565326259
-0.08094585438901936 0.07540382819187569 0.026102879067956976
0.04549474101542142 0.049055834800318755 -0.003698648093447887
-0.01322384529748775 0.12792137328485073 0.0236207172767179
-0.06119413485093283 0.15543989603993824 -0.019439977583709817
-0.030253195162367966 0.04311366681481041 0.049408059926379796
0.009967569094522892 0.06248579721203734 0.05405552793798044
-0.06478137436629267 0.169494833212098 -0.05507014209062899
-0.044288844051041186 0.1539291764744845 -0.005274603952312163
-0.0006331330604468822 0.05401697475245538 0.05420169946288935
0.027760085779139604 0.08090193392546215 -0.02300590421278307
-0.0686321274111503 0.1426751483641933 -0.007853239218458761
0.047901541356328084 0.07344145648004954 0.007940973604399926
-0.018334036676455587 0.08312859361574426 -0.03860377135066887
-0.056572936856927554 0.14864020632314554 -0.001929072759139603
0.020521898123006685 0.03494073888215614 -0.0008613742926270199
0.0014215486153401427 0.13218482718671093 0.012308484541658359
-0.025713787521871322 0.12565310139478061 0.005604312280475539
-0.07568317427294736 0.17791662375631295 -0.04803597782141636
-0.0063606819183196365 0.07753163101802987 -0.03790931984778403
-0.018454691287518518 0.052010208597896505 0.04719269492572919
-0.06337200806901974 0.0351087377278328 0.02136903012867129
0.052921054272126004 0.051921774907203504 0.026659807805625012
0.026959828890137597 0.10969535971043402 0.03698716358844148
-0.02207196914252137 0.15900740627925788 -0.007000121618320584
-0.05785869803538606 0.1524927365346716 0.027622764485588817
-0.03423437567964096 0.09120235061132474 -0.02458215236204704
-0.06397117711154038 0.03541777652464377 0.04024828368841844
0.03603989987822189 0.11246531389123293 0.02175420360874468
-0.051322740245484645 0.12954048498415566 -0.0038274711486454825
0.009898041852962591 0.12607111199385543 0.0313868113952245
0.01701889473352617 0.03541116890231943 0.031615099574197406
-0.06557843835790218 0.07674326462214204 -0.017171891720922355
-0.041373552787837886 0.04121748066235306 -0.009529241815417717
-0.016466036931929818 0.07866573085891486 0.05700677784497409
-0.0774786904952079 0.10727704199916283 0.0376474822128302
-0.05368551414635559 0.11857594534950686 0.03540178092892859
-0.014610652982868715 0.04198990435702518 -0.028656983904302873
-0.06471851204941385 0.0705768447802769 0.03637209769359342
-0.07640327927775255 0.0907397156069951 0.0386721922007251
0.030043961692217167 0.0368181839752972 0.022695855672792673
-0.06649301886296421 0.1520960902249153 0.03423514820307553
-0.08912458170747528 0.10904914945669499 0.006939702776760021
-0.042268740204551625 0.12792749400955913 0.022471021167190835
-0.07890494538371048 0.15405315182973464 0.007472391929957331
0.01675594314840385 0.03767766569481078 -0.017301593495943905
-0.0634477994241791 0.1204782629113068 -0.010310971376061935
-0.0812333729955212 0.10723311687397939 -0.003714327801546132
-0.029034798647529062 0.11097178737344254 -0.01882511268801532
-0.06842697694646906 0.16120126266728266 -0.013399684543705236
-0.07686254251353136 0.16044941785666703 -0.024128770087531125
-0.003728978007174141 0.0366511594783043 0.013696779027245391
-0.09076577151984544 0.1447363613826653 0.022066154824572366
0.03797888512076276 0.08274216925247059 0.037147470512966525
-0.07534217275900768 0.06587790623785057 0.009877162555425669
0.04580182648974755 0.06714595604407361 0.028013788395540733
-0.011806884356842764 0.17722482001357534 -0.027141206052808394
-0.02870124061303913 0.17913896117735756 -0.009480812906989442
-0.026861524732179173 0.09897978314280781 0.0441586332310579
-0.021707981521743875 0.07861491977747596 -0.03943160790541104
-0.06731485846494811 0.16944284738623336 -0.04382464017634991
-0.05206992817217725 0.12885410181045462 0.030967266402380688
-0.02014110756217458 0.03517333955793405 0.050913366501569225
0.0066707097752514 0.039175419366214125 -0.021038876015073375
-0.03967348203562528 0.0569271410309818 -0.011305034289023528
-0.05782968754567301 0.06042870958882058 -0.005909673978523473
-0.07229563041444785 0.12752372734418826 0.05345844446254673
0.03637488210574559 0.06364269050376505 -0.013169044154504228
0.03713524922544388 0.0865227795391458 -0.015628621724142696
0.036029120650295905 0.11186554777622865 -0.0006659185034555663
-0.017033527885215213 0.084833849111539 -0.03856212771587448
-0.05905155421023548 0.04311259095392136 -0.006369244362104666
0.055788163596595615 0.048526326447900114 0.018333393236789317
-0.0480766338421189 0.09887234256926192 0.04329389305592539
-0.05999008887148897 0.04502501503498308 0.02861953998713224
-0.07404660964247296 0.1785562459637412 -0.04922148716490311
0.026002876019927155 0.11389892473377383 0.034772645296965374
-0.08975661929987602 0.0884225408159255 0.01174187447358415
-0.008765910984457148 0.11692848345510999 0.039076151440323025
-0.035931121361633865 0.17071580983267978 -0.002994903368141946
-0.08654030056214412 0.11606590557168152 0.04632445918573173
-0.03451185310596833 0.08798227058798871 -0.024652337423766445
-0.08135279235067906 0.1499511641302431 0.036052621402583855
0.017260288534529104 0.11972943941109286 -0.01099850966864536
-0.028023424213345447 0.12725843816252094 0.01371652860441569
0.053565297702142446 0.051645106994993965 -0.0008774692724476711
-0.019483748524155662 0.1174377571725002 -0.01430940129239868
-0.043549797138131736 0.03498053732362066 -0.016176816388989268
-0.0550786441393433 0.04322278222871719 0.041522912088241284
0.003911209957910494 0.1252031372274352 -0.00994478342158027
-0.02715761510500951 0.04575115469866534 -0.026902453515350318
0.017172109915367637 0.08637401395287472 0.05240967197899797
0.00726325624598067 0.036187079754316794 -0.017082608821578398
-0.020611637425221836 0.1596882820043627 -0.009874706959018403
-0.047799639058933696 0.1353606147197083 0.005293346779907179
0.04882947619874107 0.07592529181276512 0.013885624536534202
-0.01725911589515825 0.04610857422102772 0.04650994796746104
-0.06876814966542825 0.12239767172462147 0.05115575353599865
0.03883430256966042 0.10881176043035166 0.022561249755401278
-0.015599807949822473 0.043788086243116316 0.049350308337458945
-0.06468169799549542 0.07350850671415075 0.03954227197852469
-0.011554966009039453 0.17523968100787063 -0.025672320619865355
-0.034238867853343236 0.16613749880157502 -0.01542563579350778
-0.08277554239632294 0.14243155355142417 -0.0017640560100493342
-0.05894536515193027 0.15666886384319584 0.007335180668471825
-0.06592498114942971 0.08071469351689467 -0.01902804230986582
-0.03970053985987786 0.03521917230381257 -0.028302916398219264
-0.027777855295453728 0.05832957778471992 0.040230958220867
0.004584946043198179 0.05748038769742814 0.055279522894490014
-0.06210360496133561 0.03587088425558752 0.022008131233987167
-0.07864810643162792 0.08223962706725073 -0.010783694958663577
0.03559058647244891 0.08525843821909931 -0.017626377695242612
-0.059631905588790765 0.15253743418118013 0.030291389892254734
-0.07417416832874149 0.1070742459769484 0.040372979833966066
-0.027387035926174367 0.09550354859521269 0.04642024549555369
-0.02047693691000778 0.12537948217382244 0.0248592179206363
-0.09036580888881075 0.10990504904405708 0.016821386515793665
-0.060865952518033596 0.15691237471710867 -0.023807161494895337
-0.0633952737830364 0.11849400738263911 -0.011884139281615974
-0.01896983749779974 0.07896719471040979 -0.04074966574974452
0.055411032489685055 0.04999208203613359 0.02360609719040069
0.043203655552649795 0.06405844132591822 0.03134920155143005
0.04004377185616067 0.10289971663775137 -0.005364287200693388
-0.0667359837875116 0.16944920582932405 -0.04559038848192156
0.00969216176452881 0.1324723069186618 0.01239766971329931
-0.03890739744390002 0.07777646806142778 -0.020851474955378854
0.053724293963816054 0.049146987746546675 0.00043179889044946183
-0.025218550036458953 0.18069407018374298 -0.013169468754940428
-0.06909055077471045 0.03538464097639649 0.0017668485194908112
0.019388003575411372 0.03545957492913339 0.03042709941502373
0.0062987918621093585 0.036386938936167144 -0.017264654962036555
-0.050554988412513595 0.1491388729113598 0.012692652962313818
0.05827565087870773 0.0696848159995346 0.009855036707420526
0.035718510069177686 0.05842694691528457 -0.012869008373992423
-0.014312204590173471 0.17421533066376374 -0.02266334666772825
-0.024198119714979635 0.11485585040614481 -0.01666976549276492
-0.031485211826105364 0.037464405545405886 0.04744265497483306
0.009006102845398734 0.039354661544523904 -0.022753103419995157
0.011305749684803355 0.09124343712894283 0.05423399290942335
-0.07657583824069081 0.1753256966404664 -0.045262492145066065
-0.04561669237584629 0.12793876908894283 0.025370776340383906
-0.04834923194057197 0.13340490815827752 0.0017300937299176214
-0.0449237286894131 0.036706582472694184 -0.017045723924529545
-0.009098527724241943 0.038298928810283406 0.017198085105494282
0.02052215249382178 0.12220854339676511 0.03255219046648108
-0.0807261957783192 0.06989519798653926 0.018147486039728104
-0.05099255661044799 0.14980622805249916 -0.0022831907667117896
-0.06189212690681475 0.036827537791610104 0.0410713692693777
0.01655620261390134 0.03623046187800278 -0.013774269331556078
-0.06186362027247684 0.04411340232622446 -0.0015470911166402981
-0.05689318310286898 0.055793556025119324 -0.0016412475426082539
0.010369560163143476 0.12420075237719845 -0.010694271292415599
-0.0859865519295941 0.14485086577707937 0.04064888231961508
0.04253358376028715 0.0661917366625016 0.032167698663396346
-0.07092715326283565 0.15753310646686602 -0.006733359563752058
-0.0584904335497939 0.10653792338760433 0.04080322094997579
-0.03025403201852136 0.044298995198236865 -0.021236680297117498
-0.010715192500364075 0.0878883009086053 -0.038440235522387255
-0.09077797612389801 0.09506322834173622 0.011745928570703067
-0.030593141097793583 0.09207599571875187 0.04669276854052361
-0.07299749954950348 0.08056637131709224 0.04064951103435172
-0.05517247257596128 0.0515129883183648 0.03188859251298461
-0.02445199571370555 0.1272598622994512 0.019652508268636133
-0.028808005721508236 0.176857811035337 -0.011635646784374213
0.04096909261525019 0.10935307592676179 0.011469802429542125
-0.07728045179700636 0.15070094697560052 -0.0067255159522238515
-0.0027569979904926594 0.05517714706106287 -0.03444612045307602
0.052715420313038684 0.07275367711130351 0.010717947475408947
-0.022935426463969875 0.05061034179733696 0.04215885811295636
-0.08895578347222613 0.14555773292492338 0.036498482951231356
-0.0410893124074123 0.0359518632763999 -0.024630775683021616
-0.00030514292231093975 0.06986982467911472 0.06027323236167483
-0.08824893891691564 0.1127884220654765 0.041733604911994605
-0.02410112338390784 0.039988403460576354 0.04942004853836112
-0.07082129208190081 0.08500492049530135 -0.0177290230446991
-0.014638616164522748 0.16479354234595142 -0.017259396862648085
-0.06773132950659054 0.13483943234416432 -0.005738122372147826
0.014990605359913473 0.12339989350227591 0.034795227678681095
-0.03436529708059891 0.16906454979994415 -0.011051068697339345
-0.06636356385936756 0.03576360626750601 0.008746135457915274
-0.05263973844863615 0.0562276059637543 -0.005531535409752724
-0.058725704271966876 0.1113820714731705 0.04071458117391645
-0.0537149142821343 0.15262586863495348 0.020817455981443175
-0.05386570433647907 0.04448845215373333 -0.005604390390144432
0.012282937405267666 0.13100258257019898 -0.0031015628861014123
-0.06776324551016985 0.15647269045564713 0.0041276360710407415
0.03469887756412032 0.07151687357186616 -0.019422266970827298
-0.08872953277777726 0.08944316719825109 0.0023318732947074754
-0.05255972647390228 0.13900274955770808 0.0002895353428045537
-0.028493609717570777 0.10491398705620579 -0.024572079289528707
-0.06577524168897184 0.05779992692145223 0.022838247345800512
-0.06379490387885729 0.16269424113274925 -0.035948014866943094
-0.036780408881137455 0.1254384416840484 0.020658617361453822
-0.07072406496378418 0.11442389785018126 0.048821206813269985
0.06045233399806695 0.048424523992869686 0.010560378478320644
0.001940938774800574 0.07731115024039778 0.06160731543753036
-0.0339005006314751 0.038687475216909094 -0.022263611034276876
0.03751333021579167 0.05317984655523767 0.03631276624278551
-0.02023309485994996 0.08845924749928392 -0.03787290545349969
-0.019787201614679503 0.04115823864646912 0.04763152580444195
-0.021503142200937304 0.17159513166942075 -0.01673380026327729
0.050521101528740134 0.08070875058939447 0.0020957556307473844
-0.06373108054146774 0.0385570908270759 0.001463890712297664
-0.040268147405537205 0.05455617112293526 0.03581172986185813
-0.058844381806203036 0.13775607145263247 -0.004646483317323437
-0.04963277742970556 0.10202111968206654 0.039663719490114484
-0.07161169980932604 0.06661237789634476 0.033492596959274375
0.034417574097373775 0.04311765742588095 0.0365179866482227
0.028327791530029556 0.12669431184289892 0.027720924578781232
-0.019550001935155832 0.05727336372307273 -0.03512692168247389
0.05260079400127683 0.04249971433440085 0.00892452270479153
-0.06546940046195161 0.07177498057551335 -0.015291557322725758
-0.0900474581922833 0.15128972931944282 0.017304156117678805
0.02309409880213041 0.04613497642850275 -0.026690835365022196
-0.04269392321883185 0.13059971860890152 0.021303887909828866
-0.06187548775023646 0.05453590082231449 0.035873697723531946
-0.031244513627894613 0.04434774310954429 0.041125583118973214
-0.055178802389172006 0.12757570907885377 -0.007128520052626528
0.0404071455974846 0.03589164855316788 0.0017774623636437415
-0.06928239152419154 0.09981980269171149 0.04113526994090277
0.017609720625939105 0.053658844764720055 0.05507833799131754
0.03231709371330283 0.12207709765989351 -0.0017036190724376281
-0.05380307371676944 0.12307624392718342 0.0373622070588025
-0.0579990176986243 0.13336279548481633 -0.006310635053530481
-0.06342856110323408 0.046063222002563485 0.024151895932051356
0.0004511742097288179 0.04718139901664105 0.0584393409143871
-0.01226124535640889 0.13229176695612696 0.02880628577604526
-0.021192027304355387 0.13386464694073172 -0.011998476754332642
-0.02029905654616413 0.05257319678556509 0.05930897886404096
3 144 224 785
3 224 634 831
3 224 785 831
3 430 472 842
3 410 733 842
3 824 831 846
3 842 844 855
3 812 844 855
3 812 842 855
3 410 733 855
3 842 844 857
3 408 833 857
3 842 855 857
3 833 857 858
3 224 785 858
3 785 831 858
3 144 224 858
3 144 634 858
3 844 855 859
3 812 855 859
3 812 859 864
3 410 842 864
3 410 855 864
3 812 842 864
3 833 857 870
3 859 864 870
3 410 733 870
3 855 864 870
3 842 857 870
3 410 855 870
3 824 846 872
3 831 858 872
3 824 831 872
3 833 870 872
3 859 872 873
3 831 846 873
3 842 844 873
3 844 855 873
3 634 831 873
3 844 857 873
3 846 872 873
3 144 785 873
3 224 634 873
3 833 857 873
3 824 846 873
3 382 844 873
3 224 785 873
3 859 864 873
3 857 858 873
3 144 634 873
3 380 844 873
3 634 858 873
3 844 859 873
3 653 785 873
3 872 873 874
3 870 872 874
3 864 873 874
3 859 864 874
3 140 872 874
3 858 872 874
3 833 858 874
3 833 872 874
3 245 872 874
3 833 857 874
